<svg xmlns="http://www.w3.org/2000/svg" xmlns:xlink="http://www.w3.org/1999/xlink" width="1000" zoomAndPan="magnify" viewBox="0 0 750 749.999995" height="1000" preserveAspectRatio="xMidYMid meet" version="1.0"><defs><g/></defs><g fill="#808080" fill-opacity="1"><g transform="translate(162.101229, 400.684601)"><g><path d="M 49.328125 0 C 53.753906 0 57.53125 -1.5625 60.65625 -4.6875 C 63.789062 -7.820312 65.359375 -11.601562 65.359375 -16.03125 L 57.34375 -16.03125 C 57.34375 -13.800781 56.554688 -11.90625 54.984375 -10.34375 C 53.410156 -8.789062 51.523438 -8.015625 49.328125 -8.015625 L 21.3125 -8.015625 C 19.082031 -8.015625 17.1875 -8.789062 15.625 -10.34375 C 14.070312 -11.90625 13.296875 -13.800781 13.296875 -16.03125 L 13.296875 -34.421875 C 13.296875 -36.617188 14.070312 -38.503906 15.625 -40.078125 C 17.1875 -41.648438 19.082031 -42.4375 21.3125 -42.4375 L 49.328125 -42.4375 C 51.523438 -42.4375 53.410156 -41.648438 54.984375 -40.078125 C 56.554688 -38.503906 57.34375 -36.617188 57.34375 -34.421875 L 65.359375 -34.421875 C 65.359375 -38.828125 63.789062 -42.59375 60.65625 -45.71875 C 57.53125 -48.851562 53.753906 -50.421875 49.328125 -50.421875 L 21.3125 -50.421875 C 16.875 -50.421875 13.09375 -48.851562 9.96875 -45.71875 C 6.84375 -42.59375 5.28125 -38.828125 5.28125 -34.421875 L 5.28125 -16.03125 C 5.28125 -11.601562 6.84375 -7.820312 9.96875 -4.6875 C 13.09375 -1.5625 16.875 0 21.3125 0 Z M 49.328125 0 "/></g></g><g transform="translate(232.730132, 400.684601)"><g><path d="M 67.109375 0 L 59.09375 0 L 59.09375 -14.203125 C 59.09375 -15.304688 58.703125 -16.25 57.921875 -17.03125 C 57.140625 -17.820312 56.195312 -18.21875 55.09375 -18.21875 L 15.046875 -18.21875 L 15.046875 0 L 7.03125 0 L 7.03125 -50.421875 L 55.09375 -50.421875 C 58.394531 -50.421875 61.222656 -49.25 63.578125 -46.90625 C 65.929688 -44.5625 67.109375 -41.734375 67.109375 -38.421875 L 67.109375 -30.234375 C 67.109375 -27.140625 66.078125 -24.46875 64.015625 -22.21875 C 66.078125 -19.945312 67.109375 -17.273438 67.109375 -14.203125 Z M 55.09375 -26.234375 C 56.195312 -26.234375 57.140625 -26.625 57.921875 -27.40625 C 58.703125 -28.1875 59.09375 -29.128906 59.09375 -30.234375 L 59.09375 -38.421875 C 59.09375 -39.523438 58.703125 -40.46875 57.921875 -41.25 C 57.140625 -42.039062 56.195312 -42.4375 55.09375 -42.4375 L 15.046875 -42.4375 L 15.046875 -26.234375 Z M 55.09375 -26.234375 "/></g></g><g transform="translate(305.116847, 400.684601)"><g><path d="M 63.109375 0 L 7.03125 0 L 7.03125 -50.421875 L 63.109375 -50.421875 L 63.109375 -42.4375 L 15.046875 -42.4375 L 15.046875 -29.21875 L 57.40625 -29.21875 L 57.40625 -21.203125 L 15.046875 -21.203125 L 15.046875 -8.015625 L 63.109375 -8.015625 Z M 63.109375 0 "/></g></g><g transform="translate(373.49575, 400.684601)"><g><path d="M 51.078125 0 C 55.515625 0 59.296875 -1.5625 62.421875 -4.6875 C 65.546875 -7.820312 67.109375 -11.601562 67.109375 -16.03125 L 67.109375 -34.421875 C 67.109375 -38.828125 65.546875 -42.59375 62.421875 -45.71875 C 59.296875 -48.851562 55.515625 -50.421875 51.078125 -50.421875 L 7.03125 -50.421875 L 7.03125 0 Z M 51.078125 -8.015625 L 15.046875 -8.015625 L 15.046875 -42.4375 L 51.078125 -42.4375 C 53.285156 -42.4375 55.171875 -41.648438 56.734375 -40.078125 C 58.304688 -38.503906 59.09375 -36.617188 59.09375 -34.421875 L 59.09375 -16.03125 C 59.09375 -13.800781 58.304688 -11.90625 56.734375 -10.34375 C 55.171875 -8.789062 53.285156 -8.015625 51.078125 -8.015625 Z M 51.078125 -8.015625 "/></g></g><g transform="translate(445.882465, 400.684601)"><g><path d="M 15.046875 0 L 15.046875 -50.421875 L 7.03125 -50.421875 L 7.03125 0 Z M 15.046875 0 "/></g></g><g transform="translate(467.960589, 400.684601)"><g><path d="M 31.890625 0 L 23.875 0 L 23.875 -42.4375 L 1.0625 -42.4375 L 1.0625 -50.421875 L 54.734375 -50.421875 L 54.734375 -42.4375 L 31.890625 -42.4375 Z M 31.890625 0 "/></g></g><g transform="translate(523.753555, 400.684601)"><g><path d="M 53.328125 0 L 17.296875 0 C 13.972656 0 11.140625 -1.171875 8.796875 -3.515625 C 6.453125 -5.859375 5.28125 -8.695312 5.28125 -12.03125 L 13.296875 -12.03125 C 13.296875 -10.925781 13.6875 -9.976562 14.46875 -9.1875 C 15.25 -8.40625 16.191406 -8.015625 17.296875 -8.015625 L 53.328125 -8.015625 C 54.429688 -8.015625 55.375 -8.40625 56.15625 -9.1875 C 56.945312 -9.976562 57.34375 -10.925781 57.34375 -12.03125 L 57.34375 -17.1875 C 57.34375 -18.3125 56.945312 -19.257812 56.15625 -20.03125 C 55.375 -20.8125 54.429688 -21.203125 53.328125 -21.203125 L 17.296875 -21.203125 C 13.972656 -21.203125 11.140625 -22.378906 8.796875 -24.734375 C 6.453125 -27.085938 5.28125 -29.914062 5.28125 -33.21875 L 5.28125 -38.421875 C 5.28125 -41.734375 6.453125 -44.5625 8.796875 -46.90625 C 11.140625 -49.25 13.972656 -50.421875 17.296875 -50.421875 L 53.328125 -50.421875 C 56.640625 -50.421875 59.472656 -49.25 61.828125 -46.90625 C 64.179688 -44.5625 65.359375 -41.734375 65.359375 -38.421875 L 57.34375 -38.421875 C 57.34375 -39.523438 56.945312 -40.460938 56.15625 -41.234375 C 55.375 -42.015625 54.429688 -42.40625 53.328125 -42.40625 L 17.296875 -42.40625 C 16.191406 -42.40625 15.25 -42.015625 14.46875 -41.234375 C 13.6875 -40.460938 13.296875 -39.523438 13.296875 -38.421875 L 13.296875 -33.21875 C 13.296875 -32.125 13.6875 -31.179688 14.46875 -30.390625 C 15.25 -29.609375 16.191406 -29.21875 17.296875 -29.21875 L 53.328125 -29.21875 C 56.640625 -29.21875 59.472656 -28.046875 61.828125 -25.703125 C 64.179688 -23.359375 65.359375 -20.519531 65.359375 -17.1875 L 65.359375 -12.03125 C 65.359375 -8.695312 64.179688 -5.859375 61.828125 -3.515625 C 59.472656 -1.171875 56.640625 0 53.328125 0 Z M 53.328125 0 "/></g></g></g><path stroke-linecap="butt" transform="matrix(0.75, 0, 0, 0.75, 158.919252, 324.752611)" fill="none" stroke-linejoin="miter" d="M 65.763918 97.001732 C 71.670168 97.001732 76.711835 94.913191 80.88371 90.741315 C 85.055585 86.56944 87.138919 81.532982 87.138919 75.626731 L 76.451418 75.626731 C 76.451418 78.595481 75.404543 81.116315 73.310793 83.19444 C 71.217043 85.272565 68.701418 86.314232 65.763918 86.314232 L 28.404541 86.314232 C 25.435791 86.314232 22.914957 85.272565 20.836832 83.19444 C 18.758707 81.116315 17.71704 78.595481 17.71704 75.626731 L 17.71704 51.111105 C 17.71704 48.173605 18.758707 45.65798 20.836832 43.56423 C 22.914957 41.47048 25.435791 40.423605 28.404541 40.423605 L 65.763918 40.423605 C 68.701418 40.423605 71.217043 41.47048 73.310793 43.56423 C 75.404543 45.65798 76.451418 48.173605 76.451418 51.111105 L 87.138919 51.111105 C 87.138919 45.236105 85.055585 40.210063 80.88371 36.038188 C 76.711835 31.866312 71.670168 29.782979 65.763918 29.782979 L 28.404541 29.782979 C 22.49829 29.782979 17.461832 31.866312 13.289957 36.038188 C 9.118082 40.210063 7.02954 45.236105 7.02954 51.111105 L 7.02954 75.626731 C 7.02954 81.532982 9.118082 86.56944 13.289957 90.741315 C 17.461832 94.913191 22.49829 97.001732 28.404541 97.001732 Z M 183.654548 97.001732 L 172.967048 97.001732 L 172.967048 78.064231 C 172.967048 76.595481 172.446214 75.335065 171.399339 74.28819 C 170.352464 73.241314 169.092048 72.720481 167.623298 72.720481 L 114.23267 72.720481 L 114.23267 97.001732 L 103.545169 97.001732 L 103.545169 29.782979 L 167.623298 29.782979 C 172.029548 29.782979 175.80559 31.345479 178.946215 34.470479 C 182.08684 37.595479 183.654548 41.361105 183.654548 45.767355 L 183.654548 56.68923 C 183.654548 60.814231 182.279548 64.376731 179.529548 67.376731 C 182.279548 70.407981 183.654548 73.970481 183.654548 78.064231 Z M 167.623298 62.032981 C 169.092048 62.032981 170.352464 61.506939 171.399339 60.460064 C 172.446214 59.413189 172.967048 58.15798 172.967048 56.68923 L 172.967048 45.767355 C 172.967048 44.298605 172.446214 43.038188 171.399339 41.991313 C 170.352464 40.944438 169.092048 40.423605 167.623298 40.423605 L 114.23267 40.423605 L 114.23267 62.032981 Z M 274.826428 97.001732 L 200.060799 97.001732 L 200.060799 29.782979 L 274.826428 29.782979 L 274.826428 40.423605 L 210.7483 40.423605 L 210.7483 58.048605 L 267.232677 58.048605 L 267.232677 68.736106 L 210.7483 68.736106 L 210.7483 86.314232 L 274.826428 86.314232 Z M 349.967056 97.001732 C 355.873307 97.001732 360.914974 94.913191 365.086849 90.741315 C 369.258724 86.56944 371.342057 81.532982 371.342057 75.626731 L 371.342057 51.111105 C 371.342057 45.236105 369.258724 40.210063 365.086849 36.038188 C 360.914974 31.866312 355.873307 29.782979 349.967056 29.782979 L 291.232679 29.782979 L 291.232679 97.001732 Z M 349.967056 86.314232 L 301.920179 86.314232 L 301.920179 40.423605 L 349.967056 40.423605 C 352.904557 40.423605 355.420182 41.47048 357.513932 43.56423 C 359.607682 45.65798 360.654557 48.173605 360.654557 51.111105 L 360.654557 75.626731 C 360.654557 78.595481 359.607682 81.116315 357.513932 83.19444 C 355.420182 85.272565 352.904557 86.314232 349.967056 86.314232 Z M 398.435809 97.001732 L 398.435809 29.782979 L 387.748308 29.782979 L 387.748308 97.001732 Z M 450.326436 97.001732 L 439.638936 97.001732 L 439.638936 40.423605 L 409.217059 40.423605 L 409.217059 29.782979 L 480.795188 29.782979 L 480.795188 40.423605 L 450.326436 40.423605 Z M 553.310816 97.001732 L 505.263939 97.001732 C 500.826439 97.001732 497.045189 95.439232 493.920188 92.314232 C 490.795188 89.189232 489.232688 85.407982 489.232688 80.970482 L 499.920189 80.970482 C 499.920189 82.439232 500.44623 83.69444 501.493105 84.741315 C 502.539981 85.78819 503.795189 86.314232 505.263939 86.314232 L 553.310816 86.314232 C 554.779566 86.314232 556.039983 85.78819 557.086858 84.741315 C 558.133733 83.69444 558.654567 82.439232 558.654567 80.970482 L 558.654567 74.079856 C 558.654567 72.579856 558.133733 71.314231 557.086858 70.282981 C 556.039983 69.251731 554.779566 68.736106 553.310816 68.736106 L 505.263939 68.736106 C 500.826439 68.736106 497.045189 67.163189 493.920188 64.022564 C 490.795188 60.881939 489.232688 57.111105 489.232688 52.704855 L 489.232688 45.767355 C 489.232688 41.361105 490.795188 37.595479 493.920188 34.470479 C 497.045189 31.345479 500.826439 29.782979 505.263939 29.782979 L 553.310816 29.782979 C 557.717067 29.782979 561.493108 31.345479 564.633734 34.470479 C 567.774359 37.595479 569.342067 41.361105 569.342067 45.767355 L 558.654567 45.767355 C 558.654567 44.298605 558.133733 43.048605 557.086858 42.017355 C 556.039983 40.986105 554.779566 40.47048 553.310816 40.47048 L 505.263939 40.47048 C 503.795189 40.47048 502.539981 40.986105 501.493105 42.017355 C 500.44623 43.048605 499.920189 44.298605 499.920189 45.767355 L 499.920189 52.704855 C 499.920189 54.173605 500.44623 55.428814 501.493105 56.475689 C 502.539981 57.522564 503.795189 58.048605 505.263939 58.048605 L 553.310816 58.048605 C 557.717067 58.048605 561.493108 59.611105 564.633734 62.736106 C 567.774359 65.861106 569.342067 69.642356 569.342067 74.079856 L 569.342067 80.970482 C 569.342067 85.407982 567.774359 89.189232 564.633734 92.314232 C 561.493108 95.439232 557.717067 97.001732 553.310816 97.001732 Z M 553.310816 97.001732 " stroke="#000000" stroke-width="3.6" stroke-opacity="1" stroke-miterlimit="4"/></svg>