<svg xmlns="http://www.w3.org/2000/svg" xmlns:xlink="http://www.w3.org/1999/xlink" width="1000" zoomAndPan="magnify" viewBox="0 0 750 749.999995" height="1000" preserveAspectRatio="xMidYMid meet" version="1.0"><defs><g/></defs><g fill="#808080" fill-opacity="1"><g transform="translate(182.465823, 350.437181)"><g><path d="M 49.328125 0 C 53.753906 0 57.53125 -1.5625 60.65625 -4.6875 C 63.789062 -7.820312 65.359375 -11.601562 65.359375 -16.03125 L 57.34375 -16.03125 C 57.34375 -13.800781 56.554688 -11.90625 54.984375 -10.34375 C 53.410156 -8.789062 51.523438 -8.015625 49.328125 -8.015625 L 21.3125 -8.015625 C 19.082031 -8.015625 17.1875 -8.789062 15.625 -10.34375 C 14.070312 -11.90625 13.296875 -13.800781 13.296875 -16.03125 L 13.296875 -34.421875 C 13.296875 -36.617188 14.070312 -38.503906 15.625 -40.078125 C 17.1875 -41.648438 19.082031 -42.4375 21.3125 -42.4375 L 49.328125 -42.4375 C 51.523438 -42.4375 53.410156 -41.648438 54.984375 -40.078125 C 56.554688 -38.503906 57.34375 -36.617188 57.34375 -34.421875 L 65.359375 -34.421875 C 65.359375 -38.828125 63.789062 -42.59375 60.65625 -45.71875 C 57.53125 -48.851562 53.753906 -50.421875 49.328125 -50.421875 L 21.3125 -50.421875 C 16.875 -50.421875 13.09375 -48.851562 9.96875 -45.71875 C 6.84375 -42.59375 5.28125 -38.828125 5.28125 -34.421875 L 5.28125 -16.03125 C 5.28125 -11.601562 6.84375 -7.820312 9.96875 -4.6875 C 13.09375 -1.5625 16.875 0 21.3125 0 Z M 49.328125 0 "/></g></g><g transform="translate(253.094726, 350.437181)"><g><path d="M 49.328125 0 C 53.753906 0 57.53125 -1.5625 60.65625 -4.6875 C 63.789062 -7.820312 65.359375 -11.601562 65.359375 -16.03125 L 65.359375 -34.421875 C 65.359375 -38.828125 63.789062 -42.59375 60.65625 -45.71875 C 57.53125 -48.851562 53.753906 -50.421875 49.328125 -50.421875 L 21.3125 -50.421875 C 16.875 -50.421875 13.09375 -48.851562 9.96875 -45.71875 C 6.84375 -42.59375 5.28125 -38.828125 5.28125 -34.421875 L 5.28125 -16.03125 C 5.28125 -11.601562 6.84375 -7.820312 9.96875 -4.6875 C 13.09375 -1.5625 16.875 0 21.3125 0 Z M 49.328125 -8.015625 L 21.3125 -8.015625 C 19.082031 -8.015625 17.1875 -8.789062 15.625 -10.34375 C 14.070312 -11.90625 13.296875 -13.800781 13.296875 -16.03125 L 13.296875 -34.421875 C 13.296875 -36.617188 14.070312 -38.503906 15.625 -40.078125 C 17.1875 -41.648438 19.082031 -42.4375 21.3125 -42.4375 L 49.328125 -42.4375 C 51.523438 -42.4375 53.410156 -41.648438 54.984375 -40.078125 C 56.554688 -38.503906 57.34375 -36.617188 57.34375 -34.421875 L 57.34375 -16.03125 C 57.34375 -13.800781 56.554688 -11.90625 54.984375 -10.34375 C 53.410156 -8.789062 51.523438 -8.015625 49.328125 -8.015625 Z M 49.328125 -8.015625 "/></g></g><g transform="translate(323.723629, 350.437181)"><g><path d="M 76.390625 0 L 68.375 0 L 68.375 -34.0625 L 43.765625 0 L 39.65625 0 L 15.046875 -34.0625 L 15.046875 0 L 7.03125 0 L 7.03125 -50.421875 L 13.078125 -50.421875 L 41.734375 -10.828125 L 70.34375 -50.421875 L 76.390625 -50.421875 Z M 76.390625 0 "/></g></g><g transform="translate(407.149406, 350.437181)"><g><path d="M 15.046875 0 L 15.046875 -50.421875 L 7.03125 -50.421875 L 7.03125 0 Z M 15.046875 0 "/></g></g><g transform="translate(429.227531, 350.437181)"><g><path d="M 67.109375 0 L 61.671875 0 L 15.046875 -38 L 15.046875 0 L 7.03125 0 L 7.03125 -50.421875 L 12.453125 -50.421875 L 59.09375 -12.453125 L 59.09375 -50.421875 L 67.109375 -50.421875 Z M 67.109375 0 "/></g></g><g transform="translate(503.372058, 350.437181)"><g><path d="M 49.328125 0 C 53.617188 0 57.390625 -1.554688 60.640625 -4.671875 C 63.734375 -7.835938 65.304688 -11.625 65.359375 -16.03125 L 65.359375 -21.203125 C 65.359375 -22.773438 64.796875 -24.125 63.671875 -25.25 C 62.546875 -26.375 61.195312 -26.9375 59.625 -26.9375 L 35.296875 -26.9375 L 35.296875 -18.921875 L 57.34375 -18.921875 L 57.34375 -16.03125 C 57.34375 -13.875 56.554688 -11.988281 54.984375 -10.375 C 53.347656 -8.800781 51.460938 -8.015625 49.328125 -8.015625 L 21.3125 -8.015625 C 19.082031 -8.015625 17.1875 -8.789062 15.625 -10.34375 C 14.070312 -11.90625 13.296875 -13.800781 13.296875 -16.03125 L 13.296875 -34.421875 C 13.296875 -36.617188 14.070312 -38.503906 15.625 -40.078125 C 17.1875 -41.648438 19.082031 -42.4375 21.3125 -42.4375 L 49.328125 -42.4375 C 51.523438 -42.4375 53.410156 -41.648438 54.984375 -40.078125 C 56.554688 -38.503906 57.34375 -36.617188 57.34375 -34.421875 L 65.359375 -34.421875 C 65.359375 -38.828125 63.789062 -42.59375 60.65625 -45.71875 C 57.53125 -48.851562 53.753906 -50.421875 49.328125 -50.421875 L 21.3125 -50.421875 C 16.875 -50.421875 13.09375 -48.851562 9.96875 -45.71875 C 6.84375 -42.59375 5.28125 -38.828125 5.28125 -34.421875 L 5.28125 -16.03125 C 5.28125 -11.601562 6.84375 -7.820312 9.96875 -4.6875 C 13.09375 -1.5625 16.875 0 21.3125 0 Z M 49.328125 0 "/></g></g></g><path stroke-linecap="butt" transform="matrix(0.75, 0, 0, 0.75, 179.283846, 274.505193)" fill="none" stroke-linejoin="miter" d="M 65.767375 96.998289 C 71.673626 96.998289 76.710084 94.914956 80.881959 90.74308 C 85.053835 86.571205 87.142376 81.529538 87.142376 75.623288 L 76.454876 75.623288 C 76.454876 78.592038 75.408001 81.11808 73.314251 83.196205 C 71.220501 85.27433 68.704875 86.310789 65.767375 86.310789 L 28.407999 86.310789 C 25.439248 86.310789 22.913207 85.27433 20.835081 83.196205 C 18.756956 81.11808 17.720498 78.592038 17.720498 75.623288 L 17.720498 51.107662 C 17.720498 48.170162 18.756956 45.654537 20.835081 43.560786 C 22.913207 41.467036 25.439248 40.420161 28.407999 40.420161 L 65.767375 40.420161 C 68.704875 40.420161 71.220501 41.467036 73.314251 43.560786 C 75.408001 45.654537 76.454876 48.170162 76.454876 51.107662 L 87.142376 51.107662 C 87.142376 45.232662 85.053835 40.211828 80.881959 36.039953 C 76.710084 31.868078 71.673626 29.779536 65.767375 29.779536 L 28.407999 29.779536 C 22.501748 29.779536 17.460081 31.868078 13.288206 36.039953 C 9.116331 40.211828 7.032997 45.232662 7.032997 51.107662 L 7.032997 75.623288 C 7.032997 81.529538 9.116331 86.571205 13.288206 90.74308 C 17.460081 94.914956 22.501748 96.998289 28.407999 96.998289 Z M 159.939255 96.998289 C 165.845505 96.998289 170.881964 94.914956 175.053839 90.74308 C 179.225714 86.571205 181.314256 81.529538 181.314256 75.623288 L 181.314256 51.107662 C 181.314256 45.232662 179.225714 40.211828 175.053839 36.039953 C 170.881964 31.868078 165.845505 29.779536 159.939255 29.779536 L 122.579878 29.779536 C 116.673628 29.779536 111.631961 31.868078 107.460086 36.039953 C 103.28821 40.211828 101.204877 45.232662 101.204877 51.107662 L 101.204877 75.623288 C 101.204877 81.529538 103.28821 86.571205 107.460086 90.74308 C 111.631961 94.914956 116.673628 96.998289 122.579878 96.998289 Z M 159.939255 86.310789 L 122.579878 86.310789 C 119.611128 86.310789 117.085086 85.27433 115.006961 83.196205 C 112.928836 81.11808 111.892378 78.592038 111.892378 75.623288 L 111.892378 51.107662 C 111.892378 48.170162 112.928836 45.654537 115.006961 43.560786 C 117.085086 41.467036 119.611128 40.420161 122.579878 40.420161 L 159.939255 40.420161 C 162.876755 40.420161 165.39238 41.467036 167.48613 43.560786 C 169.57988 45.654537 170.626755 48.170162 170.626755 51.107662 L 170.626755 75.623288 C 170.626755 78.592038 169.57988 81.11808 167.48613 83.196205 C 165.39238 85.27433 162.876755 86.310789 159.939255 86.310789 Z M 290.204886 96.998289 L 279.517386 96.998289 L 279.517386 51.576412 L 246.704884 96.998289 L 241.220509 96.998289 L 208.408007 51.576412 L 208.408007 96.998289 L 197.720507 96.998289 L 197.720507 29.779536 L 205.783007 29.779536 L 243.986134 82.560788 L 282.142386 29.779536 L 290.204886 29.779536 Z M 319.642388 96.998289 L 319.642388 29.779536 L 308.954887 29.779536 L 308.954887 96.998289 Z M 418.501768 96.998289 L 411.236142 96.998289 L 349.079889 46.326412 L 349.079889 96.998289 L 338.392389 96.998289 L 338.392389 29.779536 L 345.611139 29.779536 L 407.814267 80.404538 L 407.814267 29.779536 L 418.501768 29.779536 Z M 493.642396 96.998289 C 499.361146 96.998289 504.392397 94.920164 508.736147 90.763914 C 512.861147 86.545164 514.954897 81.498288 515.017397 75.623288 L 515.017397 68.732663 C 515.017397 66.638913 514.267397 64.842037 512.767397 63.342037 C 511.267397 61.842037 509.470522 61.092037 507.376772 61.092037 L 474.93927 61.092037 L 474.93927 71.779538 L 504.329897 71.779538 L 504.329897 75.623288 C 504.329897 78.498288 503.283022 81.013913 501.189272 83.170163 C 499.001771 85.263913 496.486146 86.310789 493.642396 86.310789 L 456.283019 86.310789 C 453.314269 86.310789 450.788227 85.27433 448.710102 83.196205 C 446.631977 81.11808 445.595519 78.592038 445.595519 75.623288 L 445.595519 51.107662 C 445.595519 48.170162 446.631977 45.654537 448.710102 43.560786 C 450.788227 41.467036 453.314269 40.420161 456.283019 40.420161 L 493.642396 40.420161 C 496.579896 40.420161 499.095521 41.467036 501.189272 43.560786 C 503.283022 45.654537 504.329897 48.170162 504.329897 51.107662 L 515.017397 51.107662 C 515.017397 45.232662 512.928855 40.211828 508.75698 36.039953 C 504.585105 31.868078 499.548646 29.779536 493.642396 29.779536 L 456.283019 29.779536 C 450.376769 29.779536 445.335102 31.868078 441.163227 36.039953 C 436.991352 40.211828 434.908018 45.232662 434.908018 51.107662 L 434.908018 75.623288 C 434.908018 81.529538 436.991352 86.571205 441.163227 90.74308 C 445.335102 94.914956 450.376769 96.998289 456.283019 96.998289 Z M 493.642396 96.998289 " stroke="#000000" stroke-width="3.6" stroke-opacity="1" stroke-miterlimit="4"/><g fill="#808080" fill-opacity="1"><g transform="translate(235.16504, 450.937176)"><g><path d="M 53.328125 0 L 17.296875 0 C 13.972656 0 11.140625 -1.171875 8.796875 -3.515625 C 6.453125 -5.859375 5.28125 -8.695312 5.28125 -12.03125 L 13.296875 -12.03125 C 13.296875 -10.925781 13.6875 -9.976562 14.46875 -9.1875 C 15.25 -8.40625 16.191406 -8.015625 17.296875 -8.015625 L 53.328125 -8.015625 C 54.429688 -8.015625 55.375 -8.40625 56.15625 -9.1875 C 56.945312 -9.976562 57.34375 -10.925781 57.34375 -12.03125 L 57.34375 -17.1875 C 57.34375 -18.3125 56.945312 -19.257812 56.15625 -20.03125 C 55.375 -20.8125 54.429688 -21.203125 53.328125 -21.203125 L 17.296875 -21.203125 C 13.972656 -21.203125 11.140625 -22.378906 8.796875 -24.734375 C 6.453125 -27.085938 5.28125 -29.914062 5.28125 -33.21875 L 5.28125 -38.421875 C 5.28125 -41.734375 6.453125 -44.5625 8.796875 -46.90625 C 11.140625 -49.25 13.972656 -50.421875 17.296875 -50.421875 L 53.328125 -50.421875 C 56.640625 -50.421875 59.472656 -49.25 61.828125 -46.90625 C 64.179688 -44.5625 65.359375 -41.734375 65.359375 -38.421875 L 57.34375 -38.421875 C 57.34375 -39.523438 56.945312 -40.460938 56.15625 -41.234375 C 55.375 -42.015625 54.429688 -42.40625 53.328125 -42.40625 L 17.296875 -42.40625 C 16.191406 -42.40625 15.25 -42.015625 14.46875 -41.234375 C 13.6875 -40.460938 13.296875 -39.523438 13.296875 -38.421875 L 13.296875 -33.21875 C 13.296875 -32.125 13.6875 -31.179688 14.46875 -30.390625 C 15.25 -29.609375 16.191406 -29.21875 17.296875 -29.21875 L 53.328125 -29.21875 C 56.640625 -29.21875 59.472656 -28.046875 61.828125 -25.703125 C 64.179688 -23.359375 65.359375 -20.519531 65.359375 -17.1875 L 65.359375 -12.03125 C 65.359375 -8.695312 64.179688 -5.859375 61.828125 -3.515625 C 59.472656 -1.171875 56.640625 0 53.328125 0 Z M 53.328125 0 "/></g></g><g transform="translate(305.793942, 450.937176)"><g><path d="M 49.328125 0 C 53.753906 0 57.53125 -1.5625 60.65625 -4.6875 C 63.789062 -7.820312 65.359375 -11.601562 65.359375 -16.03125 L 65.359375 -34.421875 C 65.359375 -38.828125 63.789062 -42.59375 60.65625 -45.71875 C 57.53125 -48.851562 53.753906 -50.421875 49.328125 -50.421875 L 21.3125 -50.421875 C 16.875 -50.421875 13.09375 -48.851562 9.96875 -45.71875 C 6.84375 -42.59375 5.28125 -38.828125 5.28125 -34.421875 L 5.28125 -16.03125 C 5.28125 -11.601562 6.84375 -7.820312 9.96875 -4.6875 C 13.09375 -1.5625 16.875 0 21.3125 0 Z M 49.328125 -8.015625 L 21.3125 -8.015625 C 19.082031 -8.015625 17.1875 -8.789062 15.625 -10.34375 C 14.070312 -11.90625 13.296875 -13.800781 13.296875 -16.03125 L 13.296875 -34.421875 C 13.296875 -36.617188 14.070312 -38.503906 15.625 -40.078125 C 17.1875 -41.648438 19.082031 -42.4375 21.3125 -42.4375 L 49.328125 -42.4375 C 51.523438 -42.4375 53.410156 -41.648438 54.984375 -40.078125 C 56.554688 -38.503906 57.34375 -36.617188 57.34375 -34.421875 L 57.34375 -16.03125 C 57.34375 -13.800781 56.554688 -11.90625 54.984375 -10.34375 C 53.410156 -8.789062 51.523438 -8.015625 49.328125 -8.015625 Z M 49.328125 -8.015625 "/></g></g><g transform="translate(376.422845, 450.937176)"><g><path d="M 49.328125 0 C 53.753906 0 57.53125 -1.5625 60.65625 -4.6875 C 63.789062 -7.820312 65.359375 -11.601562 65.359375 -16.03125 L 65.359375 -34.421875 C 65.359375 -38.828125 63.789062 -42.59375 60.65625 -45.71875 C 57.53125 -48.851562 53.753906 -50.421875 49.328125 -50.421875 L 21.3125 -50.421875 C 16.875 -50.421875 13.09375 -48.851562 9.96875 -45.71875 C 6.84375 -42.59375 5.28125 -38.828125 5.28125 -34.421875 L 5.28125 -16.03125 C 5.28125 -11.601562 6.84375 -7.820312 9.96875 -4.6875 C 13.09375 -1.5625 16.875 0 21.3125 0 Z M 49.328125 -8.015625 L 21.3125 -8.015625 C 19.082031 -8.015625 17.1875 -8.789062 15.625 -10.34375 C 14.070312 -11.90625 13.296875 -13.800781 13.296875 -16.03125 L 13.296875 -34.421875 C 13.296875 -36.617188 14.070312 -38.503906 15.625 -40.078125 C 17.1875 -41.648438 19.082031 -42.4375 21.3125 -42.4375 L 49.328125 -42.4375 C 51.523438 -42.4375 53.410156 -41.648438 54.984375 -40.078125 C 56.554688 -38.503906 57.34375 -36.617188 57.34375 -34.421875 L 57.34375 -16.03125 C 57.34375 -13.800781 56.554688 -11.90625 54.984375 -10.34375 C 53.410156 -8.789062 51.523438 -8.015625 49.328125 -8.015625 Z M 49.328125 -8.015625 "/></g></g><g transform="translate(447.051748, 450.937176)"><g><path d="M 67.109375 0 L 61.671875 0 L 15.046875 -38 L 15.046875 0 L 7.03125 0 L 7.03125 -50.421875 L 12.453125 -50.421875 L 59.09375 -12.453125 L 59.09375 -50.421875 L 67.109375 -50.421875 Z M 67.109375 0 "/></g></g></g><path stroke-linecap="butt" transform="matrix(0.75, 0, 0, 0.75, 179.283846, 274.505193)" fill="none" stroke-linejoin="miter" d="M 141.376754 230.998296 L 93.329877 230.998296 C 88.892376 230.998296 85.111126 229.435795 81.986126 226.310795 C 78.861126 223.185795 77.298626 219.404545 77.298626 214.967045 L 87.986126 214.967045 C 87.986126 216.435795 88.50696 217.696212 89.553835 218.743087 C 90.60071 219.789962 91.861127 220.310795 93.329877 220.310795 L 141.376754 220.310795 C 142.845504 220.310795 144.100712 219.789962 145.147588 218.743087 C 146.194463 217.696212 146.720504 216.435795 146.720504 214.967045 L 146.720504 208.076419 C 146.720504 206.576419 146.194463 205.310794 145.147588 204.279544 C 144.100712 203.248294 142.845504 202.732669 141.376754 202.732669 L 93.329877 202.732669 C 88.892376 202.732669 85.111126 201.164961 81.986126 198.024336 C 78.861126 194.88371 77.298626 191.107669 77.298626 186.701418 L 77.298626 179.763918 C 77.298626 175.357668 78.861126 171.592043 81.986126 168.467043 C 85.111126 165.342042 88.892376 163.779542 93.329877 163.779542 L 141.376754 163.779542 C 145.783004 163.779542 149.553838 165.342042 152.694463 168.467043 C 155.835088 171.592043 157.408005 175.357668 157.408005 179.763918 L 146.720504 179.763918 C 146.720504 178.295168 146.194463 177.045168 145.147588 176.013918 C 144.100712 174.982668 142.845504 174.467043 141.376754 174.467043 L 93.329877 174.467043 C 91.861127 174.467043 90.60071 174.982668 89.553835 176.013918 C 88.50696 177.045168 87.986126 178.295168 87.986126 179.763918 L 87.986126 186.701418 C 87.986126 188.170168 88.50696 189.430585 89.553835 190.47746 C 90.60071 191.524335 91.861127 192.045169 93.329877 192.045169 L 141.376754 192.045169 C 145.783004 192.045169 149.553838 193.607669 152.694463 196.732669 C 155.835088 199.857669 157.408005 203.638919 157.408005 208.076419 L 157.408005 214.967045 C 157.408005 219.404545 155.835088 223.185795 152.694463 226.310795 C 149.553838 229.435795 145.783004 230.998296 141.376754 230.998296 Z M 230.204883 230.998296 C 236.111134 230.998296 241.147592 228.914962 245.319467 224.743087 C 249.491343 220.571212 251.579884 215.529545 251.579884 209.623295 L 251.579884 185.107668 C 251.579884 179.232668 249.491343 174.211834 245.319467 170.039959 C 241.147592 165.868084 236.111134 163.779542 230.204883 163.779542 L 192.845507 163.779542 C 186.939256 163.779542 181.897589 165.868084 177.725714 170.039959 C 173.553839 174.211834 171.470505 179.232668 171.470505 185.107668 L 171.470505 209.623295 C 171.470505 215.529545 173.553839 220.571212 177.725714 224.743087 C 181.897589 228.914962 186.939256 230.998296 192.845507 230.998296 Z M 230.204883 220.310795 L 192.845507 220.310795 C 189.876756 220.310795 187.350715 219.274337 185.272589 217.196212 C 183.194464 215.118086 182.158006 212.592045 182.158006 209.623295 L 182.158006 185.107668 C 182.158006 182.170168 183.194464 179.654543 185.272589 177.560793 C 187.350715 175.467043 189.876756 174.420168 192.845507 174.420168 L 230.204883 174.420168 C 233.142383 174.420168 235.658009 175.467043 237.751759 177.560793 C 239.845509 179.654543 240.892384 182.170168 240.892384 185.107668 L 240.892384 209.623295 C 240.892384 212.592045 239.845509 215.118086 237.751759 217.196212 C 235.658009 219.274337 233.142383 220.310795 230.204883 220.310795 Z M 324.376763 230.998296 C 330.283013 230.998296 335.319472 228.914962 339.491347 224.743087 C 343.663222 220.571212 345.751764 215.529545 345.751764 209.623295 L 345.751764 185.107668 C 345.751764 179.232668 343.663222 174.211834 339.491347 170.039959 C 335.319472 165.868084 330.283013 163.779542 324.376763 163.779542 L 287.017386 163.779542 C 281.111136 163.779542 276.069469 165.868084 271.897594 170.039959 C 267.725718 174.211834 265.642385 179.232668 265.642385 185.107668 L 265.642385 209.623295 C 265.642385 215.529545 267.725718 220.571212 271.897594 224.743087 C 276.069469 228.914962 281.111136 230.998296 287.017386 230.998296 Z M 324.376763 220.310795 L 287.017386 220.310795 C 284.048636 220.310795 281.522594 219.274337 279.444469 217.196212 C 277.366344 215.118086 276.329886 212.592045 276.329886 209.623295 L 276.329886 185.107668 C 276.329886 182.170168 277.366344 179.654543 279.444469 177.560793 C 281.522594 175.467043 284.048636 174.420168 287.017386 174.420168 L 324.376763 174.420168 C 327.314263 174.420168 329.829888 175.467043 331.923638 177.560793 C 334.017388 179.654543 335.064263 182.170168 335.064263 185.107668 L 335.064263 209.623295 C 335.064263 212.592045 334.017388 215.118086 331.923638 217.196212 C 329.829888 219.274337 327.314263 220.310795 324.376763 220.310795 Z M 442.267394 230.998296 L 435.001768 230.998296 L 372.845515 180.326418 L 372.845515 230.998296 L 362.158015 230.998296 L 362.158015 163.779542 L 369.376765 163.779542 L 431.579893 214.404545 L 431.579893 163.779542 L 442.267394 163.779542 Z M 442.267394 230.998296 " stroke="#000000" stroke-width="3.6" stroke-opacity="1" stroke-miterlimit="4"/></svg>