<svg xmlns="http://www.w3.org/2000/svg" xmlns:xlink="http://www.w3.org/1999/xlink" width="2500" zoomAndPan="magnify" viewBox="0 0 1874.88 1874.999927" height="2500" preserveAspectRatio="xMidYMid meet" version="1.0"><defs><clipPath id="305b24fce2"><path d="M 186.578125 186.636719 L 1687.390625 186.636719 L 1687.390625 1687.453125 L 186.578125 1687.453125 Z M 186.578125 186.636719 " clip-rule="nonzero"/></clipPath><clipPath id="970eaf73ea"><path d="M 936.984375 186.636719 C 522.546875 186.636719 186.578125 522.605469 186.578125 937.042969 C 186.578125 1351.484375 522.546875 1687.453125 936.984375 1687.453125 C 1351.421875 1687.453125 1687.390625 1351.484375 1687.390625 937.042969 C 1687.390625 522.605469 1351.421875 186.636719 936.984375 186.636719 " clip-rule="nonzero"/></clipPath><clipPath id="324f8ed726"><path d="M 30.640625 30.699219 L 1844.023438 30.699219 L 1844.023438 1844.085938 L 30.640625 1844.085938 Z M 30.640625 30.699219 " clip-rule="nonzero"/></clipPath><clipPath id="50f26bef65"><path d="M 328.105469 588.472656 L 1546.777344 588.472656 L 1546.777344 738 L 328.105469 738 Z M 328.105469 588.472656 " clip-rule="nonzero"/></clipPath><clipPath id="e34590d458"><path d="M 327.648438 892.671875 L 1546.320312 892.671875 L 1546.320312 1043 L 327.648438 1043 Z M 327.648438 892.671875 " clip-rule="nonzero"/></clipPath><clipPath id="d1dd5b6f3c"><path d="M 327.648438 1196.875 L 1546.320312 1196.875 L 1546.320312 1347 L 327.648438 1347 Z M 327.648438 1196.875 " clip-rule="nonzero"/></clipPath></defs><g clip-path="url(#305b24fce2)"><g clip-path="url(#970eaf73ea)"><path fill="#000000" d="M 186.578125 186.636719 L 1687.390625 186.636719 L 1687.390625 1687.453125 L 186.578125 1687.453125 Z M 186.578125 186.636719 " fill-opacity="1" fill-rule="nonzero"/></g></g><g clip-path="url(#324f8ed726)"><path fill="#000000" d="M 937.332031 30.699219 C 436.386719 30.699219 30.640625 436.445312 30.640625 937.390625 C 30.640625 1438.339844 436.386719 1844.085938 937.332031 1844.085938 C 1438.28125 1844.085938 1844.023438 1438.339844 1844.023438 937.390625 C 1844.023438 436.445312 1438.28125 30.699219 937.332031 30.699219 Z M 937.332031 1662.746094 C 537.480469 1662.746094 211.980469 1337.242188 211.980469 937.390625 C 211.980469 537.542969 537.480469 212.039062 937.332031 212.039062 C 1337.183594 212.039062 1662.6875 537.542969 1662.6875 937.390625 C 1662.6875 1337.242188 1337.183594 1662.746094 937.332031 1662.746094 Z M 937.332031 1662.746094 " fill-opacity="1" fill-rule="nonzero"/></g><g clip-path="url(#50f26bef65)"><path fill="#ffffff" d="M 328.105469 588.472656 L 1549.707031 588.472656 L 1549.707031 737.875 L 328.105469 737.875 Z M 328.105469 588.472656 " fill-opacity="1" fill-rule="nonzero"/></g><g clip-path="url(#e34590d458)"><path fill="#ffffff" d="M 327.648438 892.671875 L 1549.25 892.671875 L 1549.25 1042.078125 L 327.648438 1042.078125 Z M 327.648438 892.671875 " fill-opacity="1" fill-rule="nonzero"/></g><g clip-path="url(#d1dd5b6f3c)"><path fill="#ffffff" d="M 327.648438 1196.875 L 1549.25 1196.875 L 1549.25 1346.28125 L 327.648438 1346.28125 Z M 327.648438 1196.875 " fill-opacity="1" fill-rule="nonzero"/></g></svg>